<?xml version="1.0" encoding="UTF-8"?>
<svg xmlns="http://www.w3.org/2000/svg"
     viewBox="300 200 400 400"
     preserveAspectRatio="xMidYMid meet">
  <g transform="translate(0,1000) scale(0.1,-0.1)"
     fill="#000000" stroke="none">
    <path d="M4850 7819 c-333 -38 -676 -182 -942 -395 -157 -126 -317 -312 -426
-495 -246 -410 -315 -917 -192 -1399 47 -185 159 -421 278 -590 81 -115 288
-326 396 -405 567 -415 1301 -478 1916 -164 289 147 517 349 695 614 462 689
401 1601 -147 2225 -392 445 -989 676 -1578 609z m478 -1085 c12 -14 22 -37
22 -53 0 -15 -83 -337 -185 -716 -201 -753 -191 -725 -266 -725 -44 0 -75 24
-85 65 -4 18 51 240 176 708 101 375 188 692 193 705 25 55 103 64 145 16z
m-751 -16 c37 -35 30 -69 -24 -119 -27 -25 -193 -168 -371 -319 -177 -150
-321 -277 -320 -281 2 -4 163 -143 358 -309 195 -166 361 -309 368 -318 35
-46 -10 -112 -76 -112 -48 0 -9 -30 -477 368 -209 178 -384 334 -389 347 -6
16 -6 35 0 50 9 26 789 699 829 716 29 12 76 2 102 -23z
m1057 22 c34 -13 817 -686 834 -716 7 -13 10 -35 6 -48 -4 -16 -142 -142 -406
-368 -219 -189 -411 -349 -426 -357 -57 -30 -141 24 -127 82 5 19 113 118 376
344 282 243 367 320 356 328 -81 62 -721 623 -728 639 -15 32 5 74 43 91 40
17 41 17 72 5z"/>
  </g>
</svg>
