<svg xmlns="http://www.w3.org/2000/svg" width="31" height="37" viewBox="0 0 31 37" fill="none"><g clip-path="url(#clip0_830_133233)"><mask id="mask0_830_133233" style="mask-type:alpha" maskUnits="userSpaceOnUse" x="9" y="9" width="22" height="28"><path d="M16.216 15.5005H20.0988C25.9219 15.5005 30.6424 20.221 30.6424 26.0441C30.6424 31.8671 25.9219 36.5877 20.0988 36.5877C14.9218 36.5877 10.6163 32.8565 9.72461 27.9366L14.7448 27.9366C15.5242 30.1416 17.6271 31.7214 20.099 31.7214C23.2345 31.7214 25.7763 29.1796 25.7763 26.0441C25.7763 22.9399 23.2851 20.4176 20.1929 20.3675L20.17 20.3673L19.7893 22.3493H14.9039L16.216 15.5005ZM30.883 9.55278L29.9116 14.4191H16.4189L17.3573 9.55278H30.883Z" fill="white"></path></mask><g mask="url(#mask0_830_133233)"><path d="M16.215 15.5H20.0979C25.9209 15.5 30.6415 20.2205 30.6415 26.0436C30.6415 31.8667 25.9209 36.5872 20.0979 36.5872C14.9208 36.5872 10.6153 32.856 9.72363 27.9361L14.7438 27.9361C15.5232 30.1411 17.6261 31.7209 20.098 31.7209C23.2335 31.7209 25.7753 29.1791 25.7753 26.0436C25.7753 22.9395 23.2841 20.4172 20.1919 20.367L20.169 20.3668L19.7884 22.3488H14.9029L16.215 15.5ZM30.882 9.55232L29.9107 14.4186H16.418L17.3563 9.55232H30.882Z" fill="url(#paint0_linear_830_133233)"></path><path fill-rule="evenodd" clip-rule="evenodd" d="M25.5159 24.3316C25.8017 25.1806 25.9565 26.0898 25.9565 27.0351C25.9565 31.7135 22.1639 35.5061 17.4856 35.5061C12.8072 35.5061 9.01465 31.7135 9.01465 27.0351C9.01465 26.0898 9.1695 25.1806 9.45522 24.3316H25.5159Z" fill="url(#paint1_linear_830_133233)"></path></g><path fill-rule="evenodd" clip-rule="evenodd" d="M22.8895 0C23.278 0 23.6643 0.00967911 24.048 0.0288093L22.4366 8.47093H17.5683L18.1283 5.50186C12.908 6.92802 8.63238 10.6422 6.44598 15.4998L15.112 15.5L14.1827 20.3663L5.04152 20.3662C4.92601 21.1907 4.86628 22.0332 4.86628 22.8895C4.86628 23.8711 4.94475 24.8344 5.09577 25.7734L0.17994 25.7735C0.061188 24.8289 0 23.8664 0 22.8895C0 10.248 10.248 0 22.8895 0Z" fill="url(#paint2_linear_830_133233)"></path></g><defs><linearGradient id="paint0_linear_830_133233" x1="29.5378" y1="30.0436" x2="14.7632" y2="12.9469" gradientUnits="userSpaceOnUse"><stop stop-color="#06BEF3"></stop><stop offset="0.401492" stop-color="#00C2E8"></stop><stop offset="1" stop-color="#0EF197"></stop></linearGradient><linearGradient id="paint1_linear_830_133233" x1="27.8897" y1="31.9985" x2="12.924" y2="27.4468" gradientUnits="userSpaceOnUse"><stop stop-color="#264ECE"></stop><stop offset="1" stop-color="#00D1F9"></stop></linearGradient><linearGradient id="paint2_linear_830_133233" x1="18.3089" y1="14.7912" x2="12.5345" y2="9.27878" gradientUnits="userSpaceOnUse"><stop stop-color="#ABBAEF"></stop><stop offset="1" stop-color="white"></stop></linearGradient><clipPath id="clip0_830_133233"><rect width="31" height="36.7674" fill="white"></rect></clipPath></defs></svg>